<?xml version="1.0" standalone="no"?>
<!DOCTYPE svg PUBLIC "-//W3C//DTD SVG 20010904//EN"
 "http://www.w3.org/TR/2001/REC-SVG-20010904/DTD/svg10.dtd">
<svg version="1.0" xmlns="http://www.w3.org/2000/svg"
 width="239.000000pt" height="52.000000pt" viewBox="0 0 239.000000 52.000000"
 preserveAspectRatio="xMidYMid meet">
<metadata>
Created by potrace 1.16, written by Peter Selinger 2001-2019
</metadata>
<g transform="translate(0.000000,52.000000) scale(0.100000,-0.100000)"
fill="#000000" stroke="none">
<path d="M1080 410 c0 -38 4 -50 15 -50 10 0 15 11 16 38 l1 37 15 -37 c9 -21
20 -38 25 -38 5 0 18 19 28 43 l20 42 0 -42 0 -43 50 0 c45 0 50 2 51 23 l0
22 11 -22 c6 -13 19 -23 29 -23 16 0 17 3 7 25 -15 33 -5 41 24 20 15 -11 17
-15 6 -12 -12 4 -18 1 -18 -9 0 -21 29 -29 51 -15 12 7 19 7 19 1 0 -5 7 -10
15 -10 11 0 15 12 15 50 0 38 -4 50 -15 50 -10 0 -15 -10 -15 -30 0 -26 -2
-29 -14 -18 -9 8 -10 15 -4 19 15 9 0 29 -21 29 -9 0 -22 -5 -29 -12 -9 -9
-15 -9 -24 0 -7 7 -42 12 -88 12 -70 0 -78 -2 -87 -22 l-10 -23 -7 23 c-5 16
-15 22 -37 22 -28 0 -29 -1 -29 -50z"/>
<path d="M1470 410 c0 -47 2 -50 26 -50 14 0 34 5 45 10 13 7 19 7 19 0 0 -14
27 -13 33 3 3 10 9 10 26 0 29 -18 96 -16 115 3 15 14 16 14 16 0 0 -12 10
-16 35 -16 40 0 50 26 13 33 l-23 4 23 2 c12 0 22 5 22 10 0 5 -10 12 -22 14
l-23 4 23 2 c38 2 27 31 -13 31 -27 0 -35 -4 -35 -17 0 -13 -2 -15 -8 -5 -5 7
-25 15 -45 19 l-37 6 -1 -44 0 -44 -17 43 c-20 53 -44 55 -65 5 -14 -36 -15
-36 -16 -11 -1 30 -25 48 -65 48 -24 0 -26 -3 -26 -50z"/>
<path d="M2027 446 c-13 -10 -18 -27 -18 -62 0 -27 -1 -76 -2 -109 l-2 -60
128 -1 127 -2 0 28 0 27 -105 1 c-98 1 -105 0 -105 -18 0 -28 -17 -25 -22 4
-6 32 5 36 112 43 47 3 93 10 103 15 19 10 24 48 5 48 -6 0 -4 8 6 19 10 11
16 31 14 48 l-3 28 -110 2 c-81 2 -115 -1 -128 -11z"/>
<path d="M110 260 c0 -48 1 -50 28 -50 15 0 37 6 48 14 17 12 22 12 39 0 24
-18 40 -18 59 2 23 22 20 61 -5 74 -23 13 -69 5 -69 -11 0 -5 -10 -3 -22 5
-12 9 -35 16 -50 16 -27 0 -28 -2 -28 -50z"/>
<path d="M539 264 c-20 -48 -17 -72 5 -41 16 21 35 22 42 2 8 -20 78 -20 98 1
15 14 17 14 32 0 20 -21 37 -20 64 2 50 40 -9 105 -63 69 -19 -12 -24 -12 -35
-1 -7 8 -26 14 -42 14 -28 0 -30 -3 -31 -37 l-1 -38 -16 37 c-10 21 -21 38
-25 38 -4 0 -17 -21 -28 -46z"/>
<path d="M1430 52 l0 -39 100 -1 c83 0 102 3 110 16 9 16 9 16 10 0 0 -12 8
-18 25 -18 29 0 34 16 8 23 -17 4 -17 5 0 6 9 0 17 5 17 10 0 5 -8 12 -17 14
-17 4 -17 5 0 6 27 2 20 21 -8 21 -16 0 -25 -6 -25 -16 0 -14 -1 -14 -16 0 -8
9 -26 16 -40 16 -19 0 -24 -5 -25 -27 l-1 -28 -10 27 c-12 33 -34 36 -43 7
l-7 -21 -15 21 c-8 12 -25 21 -39 21 -21 0 -24 -4 -24 -38z"/>
<path d="M1900 51 l0 -40 48 2 c43 2 47 4 50 30 4 36 22 35 22 -2 l0 -29 125
1 c69 0 125 4 125 7 0 4 -5 21 -11 39 -12 35 -35 41 -44 11 -8 -26 -21 -26
-28 0 -8 30 -57 28 -58 -2 l0 -23 -11 23 c-16 32 -33 27 -51 -15 -14 -36 -15
-37 -16 -10 -1 15 4 27 9 27 6 0 10 5 10 10 0 6 -20 10 -45 10 -41 0 -45 -2
-45 -24 0 -14 -4 -28 -10 -31 -6 -4 -10 7 -10 24 0 28 -3 31 -30 31 -28 0 -30
-2 -30 -39z"/>
</g>
</svg>
